
<svg width="25" height="18" viewBox="0 0 22 14" fill="" xmlns="http://www.w3.org/2000/svg">
      <rect y="6" width="22" height="2" rx="1" fill="#84827E"></rect>
      <rect y="12" width="22" height="2" rx="1" fill="#84827E"></rect>
      <rect width="22" height="2" rx="1" fill="#84827E"></rect>
    </svg>

<svg width="100" height="26" viewBox="0 0 100 26" fill="none" xmlns="http://www.w3.org/2000/svg">
        <path d="M45.8649 21.7973C42.538 21.7973 40.3071 19.5579 40.3071 16.2073C40.3071 12.8567 42.538 10.6326 45.8649 10.6326C49.1918 10.6326 51.4041 12.8703 51.4041 16.2073C51.4041 19.5444 49.1731 21.7973 45.8649 21.7973ZM45.8734 6.42658C39.6787 6.42658 35.5234 10.348 35.5234 16.1938C35.5234 22.0751 39.6787 25.9966 45.8734 25.9966C52.0325 25.9966 56.186 22.0751 56.186 16.1938C56.186 10.348 52.0325 6.42658 45.8734 6.42658Z" fill="#67645E"></path>
        <path d="M11.7525 6.47027C11.8789 6.46892 12.0007 6.51772 12.0912 6.60598C12.1817 6.69425 12.2335 6.81479 12.2353 6.94119V10.6424C12.2335 10.7338 12.1979 10.8213 12.1353 10.888C12.0727 10.9546 11.9876 10.9957 11.8965 11.0032C11.1037 11.049 9.08286 10.6221 7.43636 11.2912C6.88218 11.5524 6.3947 11.9363 6.01083 12.4138C5.62696 12.8913 5.35676 13.4499 5.2207 14.0472C4.99541 15.0179 5.01743 23.1098 5.02759 25.1594C5.02693 25.2219 5.01396 25.2837 4.98942 25.3412C4.96488 25.3987 4.92926 25.4508 4.88459 25.4945C4.83992 25.5383 4.78707 25.5728 4.72906 25.5961C4.67105 25.6194 4.60902 25.631 4.54651 25.6303H0.481076C0.418567 25.631 0.356538 25.6194 0.29853 25.5961C0.240523 25.5728 0.187675 25.5383 0.143002 25.4945C0.098329 25.4508 0.0627064 25.3987 0.0381701 25.3412C0.0136338 25.2837 0.000663799 25.2219 0 25.1594L0 7.3562C0.000663047 7.28621 0.0151358 7.21703 0.0425874 7.15264C0.070039 7.08825 0.10993 7.02991 0.159973 6.98097C0.210017 6.93203 0.269228 6.89344 0.334213 6.86743C0.399198 6.84142 0.468679 6.82849 0.538671 6.82939H4.32122C4.45932 6.82792 4.59261 6.88004 4.69307 6.97482C4.79352 7.06959 4.85332 7.19962 4.85989 7.33757L4.88361 8.40644C4.88611 8.46891 4.90948 8.52873 4.94999 8.57635C4.9905 8.62397 5.0458 8.65664 5.10706 8.66912C5.16832 8.68161 5.232 8.6732 5.28791 8.64523C5.34383 8.61726 5.38875 8.57136 5.4155 8.51485C5.81866 7.66788 6.43186 6.909 7.1467 6.65153C7.5131 6.52333 7.89854 6.45804 8.28672 6.45842L11.7525 6.47027Z" fill="#67645E"></path>
        <path d="M33.6076 14.0068V25.1614C33.6069 25.224 33.5939 25.2859 33.5692 25.3435C33.5446 25.4011 33.5088 25.4533 33.464 25.4971C33.4191 25.5408 33.3661 25.5753 33.3079 25.5985C33.2497 25.6217 33.1874 25.6332 33.1248 25.6323H29.0594C28.9329 25.6336 28.8112 25.5848 28.7207 25.4966C28.6302 25.4083 28.5784 25.2878 28.5766 25.1614V14.803C28.5766 12.2722 26.7285 10.6088 23.9166 10.6088H21.003C20.7762 10.6061 20.5511 10.6482 20.3405 10.7325C20.1299 10.8169 19.9381 10.942 19.7759 11.1005C19.6137 11.2591 19.4843 11.4481 19.3952 11.6567C19.3061 11.8653 19.259 12.0894 19.2566 12.3163V25.1614C19.2559 25.224 19.2429 25.2859 19.2182 25.3435C19.1936 25.4011 19.1578 25.4533 19.113 25.4971C19.0681 25.5408 19.0151 25.5753 18.9569 25.5985C18.8987 25.6217 18.8364 25.6332 18.7738 25.6323H14.7084C14.582 25.6336 14.4602 25.5848 14.3697 25.4966C14.2792 25.4083 14.2274 25.2878 14.2256 25.1614L14.2256 0.616282C14.2274 0.489885 14.2792 0.369349 14.3697 0.28108C14.4602 0.192814 14.582 0.144012 14.7084 0.145369H18.7738C18.9002 0.144012 19.022 0.192814 19.1125 0.28108C19.203 0.369349 19.2548 0.489885 19.2566 0.616282V5.94201C19.2579 6.0684 19.3093 6.18912 19.3995 6.2777C19.4896 6.36628 19.6112 6.41551 19.7376 6.41461H25.6952C30.4382 6.43155 33.6076 9.46369 33.6076 14.0051" fill="#67645E"></path>
        <path d="M73.5606 16.6856C73.5606 19.4908 71.2348 21.7674 68.3653 21.7674C65.4957 21.7674 63.1717 19.4942 63.1717 16.6856V15.7387C63.1717 12.9336 65.4974 10.6569 68.3653 10.6569H71.9513C72.1602 10.6545 72.3675 10.6932 72.5615 10.7708C72.7554 10.8485 72.9321 10.9636 73.0815 11.1096C73.231 11.2556 73.3502 11.4295 73.4324 11.6216C73.5146 11.8137 73.5581 12.02 73.5606 12.2289V16.6856ZM77.7259 0.146078H74.4177C74.305 0.143826 74.1931 0.164068 74.0884 0.205622C73.9836 0.247177 73.8883 0.309206 73.8078 0.388079C73.7274 0.466953 73.6635 0.561085 73.6198 0.664963C73.5762 0.768843 73.5538 0.880379 73.5538 0.993044V5.77332C73.5498 5.95559 73.4741 6.12894 73.3431 6.25578C73.2122 6.38262 73.0365 6.45272 72.8542 6.45089H67.5302C67.52 6.45089 67.5098 6.45089 67.498 6.45089C62.0977 6.45089 57.9561 10.5367 57.9561 16.6484C57.9561 22.65 62.0977 25.9819 67.498 25.9819C69.7119 25.9819 71.5126 25.3416 72.8559 24.2135C73.4115 23.7459 73.5335 24.0881 73.5606 24.803C73.5809 25.2569 73.6351 25.6194 74.5549 25.6194H77.7259C77.8386 25.6217 77.9505 25.6014 78.0553 25.5599C78.16 25.5183 78.2554 25.4563 78.3358 25.3774C78.4163 25.2986 78.4802 25.2044 78.5238 25.1005C78.5674 24.9967 78.5899 24.8851 78.5898 24.7725V0.993044C78.5899 0.880379 78.5674 0.768843 78.5238 0.664963C78.4802 0.561085 78.4163 0.466953 78.3358 0.388079C78.2554 0.309206 78.16 0.247177 78.0553 0.205622C77.9505 0.164068 77.8386 0.143826 77.7259 0.146078Z" fill="#67645E"></path>
        <path d="M90.2671 10.6247C92.3506 10.6247 94.4206 11.89 94.5188 13.8652C94.5191 13.8844 94.5155 13.9034 94.5082 13.9212C94.501 13.939 94.4903 13.9551 94.4767 13.9687C94.4631 13.9822 94.447 13.993 94.4292 14.0002C94.4114 14.0074 94.3924 14.0111 94.3732 14.0108H86.0255C86.0063 14.0113 85.9872 14.0079 85.9694 14.0007C85.9516 13.9935 85.9355 13.9828 85.922 13.9691C85.9085 13.9555 85.8979 13.9392 85.891 13.9213C85.884 13.9034 85.8808 13.8843 85.8815 13.8652C85.9865 11.9307 88.1734 10.6247 90.2671 10.6247ZM99.1246 17.9086C99.3281 17.9125 99.5257 17.8406 99.6791 17.707C99.8325 17.5733 99.9307 17.3873 99.9547 17.1853C99.9852 16.8634 100 16.5342 100 16.1977C100 10.3452 96.2196 6.42202 90.2586 6.43049C84.5348 6.43896 80.3999 10.6924 80.4338 16.2892C80.4745 22.1197 84.318 26.0005 90.2722 26.0005C94.551 26.0005 97.5815 23.9678 99.0806 20.6426C99.1095 20.5713 99.1203 20.4939 99.1119 20.4175C99.1036 20.341 99.0763 20.2678 99.0326 20.2045C98.989 20.1412 98.9302 20.0897 98.8617 20.0547C98.7932 20.0197 98.7171 20.0022 98.6402 20.004H94.3325C94.1657 20.0078 94.0013 20.0453 93.8493 20.1143C93.6974 20.1833 93.5609 20.2823 93.4483 20.4054C92.5928 21.288 91.6646 21.8012 90.2688 21.8012C87.838 21.8012 85.8764 20.3072 85.8764 17.9052L99.1246 17.9086Z" fill="#67645E"></path>
      </svg>

<svg xmlns="http://www.w3.org/2000/svg" xmlns:xlink="http://www.w3.org/1999/xlink" version="1.1" id="Layer_1" x="0px" y="0px" viewBox="0 0 17.6 18.9" style="enable-background:new 0 0 17.6 18.9;" xml:space="preserve">
  <style type="text/css">
    .st0{fill-rule:evenodd;clip-rule:evenodd;}
  </style>
  <path class="st0" d="M2.2,7.1c0-2.7,2.2-4.9,4.9-4.9c2.7,0,4.9,2.2,4.9,4.9C12,9.8,9.8,12,7.1,12C4.4,12,2.2,9.8,2.2,7.1z M7.1,0.2  c-3.8,0-6.9,3.1-6.9,6.9c0,3.8,3.1,6.9,6.9,6.9c1.2,0,2.3-0.3,3.3-0.9l5.3,5.3c0.4,0.4,1,0.4,1.4,0c0.4-0.4,0.4-1,0-1.4L12,11.9  c1.2-1.2,2-2.9,2-4.8C14,3.3,10.9,0.2,7.1,0.2z"></path>
</svg>

<svg xmlns="http://www.w3.org/2000/svg" xmlns:xlink="http://www.w3.org/1999/xlink" version="1.1" id="Layer_1" x="0px" y="0px" viewBox="0 0 21.3 19.3" style="enable-background:new 0 0 21.3 19.3;" xml:space="preserve">
  <style type="text/css">
    .st0{fill-rule:evenodd;clip-rule:evenodd;}
  </style>
  <path class="st0" d="M20.4,0.2c-0.5-0.1-1.1,0.2-1.2,0.7l-2.9,11.2h-7l-2.5-12H1.1c-0.6,0-1,0.4-1,1c0,0.6,0.4,1,1,1h4.1l2.5,12  h10.2l3.3-12.8C21.3,0.8,20.9,0.3,20.4,0.2z M10.1,17.6c0,0.8-0.7,1.5-1.5,1.5c-0.8,0-1.5-0.7-1.5-1.5s0.7-1.5,1.5-1.5  C9.5,16.1,10.1,16.8,10.1,17.6z M16.6,19.1c0.8,0,1.5-0.7,1.5-1.5s-0.7-1.5-1.5-1.5c-0.8,0-1.5,0.7-1.5,1.5S15.8,19.1,16.6,19.1z"></path>
</svg>

<svg width="31" height="31" viewBox="0 0 31 31" fill="none" xmlns="http://www.w3.org/2000/svg"> <circle cx="15.5" cy="15.5" r="15" fill="#ffffff" stroke="#67645e"></circle> <path fill-rule="evenodd" clip-rule="evenodd" d="M14 10H11V21H14V10ZM20 10H17V21H20V10Z" fill="#67645e"></path> </svg>

<svg width="100%" viewBox="0 0 1273 330" fill="none" xmlns="http://www.w3.org/2000/svg">
        <path d="M583.72 276.498C541.38 276.498 512.989 248.002 512.989 205.364C512.989 162.726 541.38 134.424 583.72 134.424C626.059 134.424 654.214 162.899 654.214 205.364C654.214 247.829 625.822 276.498 583.72 276.498ZM583.828 80.9003C504.991 80.9003 452.109 130.802 452.109 205.192C452.109 280.034 504.991 329.936 583.828 329.936C662.212 329.936 715.071 280.034 715.071 205.192C715.071 130.802 662.212 80.9003 583.828 80.9003Z" fill="#67645E"></path>
        <path d="M149.568 81.4906C151.177 81.4734 152.727 82.0944 153.878 83.2175C155.03 84.3407 155.689 85.8746 155.712 87.483L155.712 134.581C155.689 135.744 155.236 136.857 154.439 137.706C153.643 138.554 152.56 139.076 151.4 139.172C141.311 139.754 115.593 134.322 94.6387 142.836C87.586 146.16 81.382 151.045 76.4967 157.121C71.6114 163.197 68.1727 170.305 66.4411 177.907C63.574 190.258 63.8542 293.226 63.9836 319.308C63.9751 320.104 63.81 320.89 63.4978 321.621C63.1855 322.353 62.7322 323.016 62.1636 323.572C61.5951 324.129 60.9225 324.568 60.1843 324.864C59.4461 325.161 58.6567 325.309 57.8611 325.3L6.12241 325.3C5.32688 325.309 4.53747 325.161 3.79924 324.864C3.06101 324.568 2.38844 324.129 1.81991 323.572C1.25138 323.016 0.798032 322.353 0.485771 321.621C0.17351 320.89 0.00844783 320.104 0 319.308L0 92.764C0.00843826 91.8733 0.192625 90.993 0.541988 90.1737C0.89135 89.3543 1.39902 88.612 2.0359 87.9892C2.67277 87.3664 3.42632 86.8755 4.25335 86.5444C5.08038 86.2135 5.96463 86.049 6.85538 86.0603L54.994 86.0603C56.7515 86.0416 58.4478 86.7049 59.7262 87.9109C61.0047 89.1168 61.7657 90.7715 61.8493 92.5269L62.1511 106.128C62.183 106.923 62.4804 107.684 62.996 108.29C63.5115 108.896 64.2153 109.312 64.9949 109.471C65.7745 109.63 66.5849 109.523 67.2965 109.167C68.0081 108.811 68.5798 108.227 68.9203 107.508C74.051 96.7301 81.855 87.0734 90.9523 83.797C95.6153 82.1658 100.521 81.335 105.461 81.3398L149.568 81.4906Z" fill="#67645E"></path>
        <path d="M427.727 177.39L427.727 319.329C427.719 320.127 427.553 320.914 427.239 321.647C426.926 322.38 426.47 323.044 425.9 323.601C425.329 324.158 424.654 324.596 423.913 324.892C423.172 325.187 422.38 325.333 421.583 325.322L369.844 325.322C368.236 325.339 366.686 324.718 365.534 323.595C364.382 322.472 363.723 320.938 363.7 319.329L363.7 187.521C363.7 155.317 340.181 134.15 304.395 134.15L267.315 134.15C264.429 134.116 261.564 134.651 258.884 135.725C256.204 136.799 253.762 138.39 251.698 140.408C249.634 142.426 247.988 144.831 246.854 147.485C245.72 150.14 245.12 152.992 245.089 155.878L245.089 319.329C245.081 320.127 244.915 320.914 244.601 321.647C244.288 322.38 243.833 323.044 243.262 323.601C242.691 324.158 242.016 324.596 241.275 324.892C240.534 325.187 239.743 325.333 238.945 325.322L187.206 325.322C185.598 325.339 184.048 324.718 182.896 323.595C181.745 322.472 181.085 320.938 181.063 319.329L181.063 6.99756C181.085 5.38919 181.745 3.85538 182.896 2.73218C184.048 1.60901 185.598 0.988007 187.206 1.00528L238.945 1.00528C240.554 0.988007 242.104 1.60901 243.255 2.73218C244.407 3.85538 245.066 5.38919 245.089 6.99756L245.089 74.7664C245.106 76.3748 245.76 77.9109 246.908 79.0381C248.055 80.1653 249.603 80.7918 251.212 80.7803L327.031 80.7803C387.392 80.9958 427.727 119.579 427.727 177.368" fill="#67645E"></path>
        <path d="M936.165 211.463C936.165 247.158 906.566 276.127 870.047 276.127C833.528 276.127 803.951 247.201 803.951 211.463V199.414C803.951 163.719 833.55 134.749 870.047 134.749L915.685 134.749C918.343 134.718 920.982 135.21 923.45 136.199C925.918 137.187 928.167 138.652 930.068 140.509C931.97 142.367 933.487 144.58 934.533 147.024C935.579 149.468 936.134 152.094 936.165 154.752L936.165 211.463ZM989.175 1.00098L947.073 1.00098C945.639 0.97229 944.215 1.22989 942.882 1.75867C941.549 2.28741 940.335 3.07672 939.311 4.08035C938.288 5.08401 937.474 6.28183 936.919 7.60367C936.364 8.92548 936.078 10.3448 936.079 11.7784L936.079 72.6062C936.028 74.9256 935.064 77.1314 933.398 78.7454C931.731 80.3594 929.495 81.2514 927.175 81.2282L859.419 81.2282C859.29 81.2282 859.16 81.2282 859.009 81.2282C790.283 81.2282 737.574 133.219 737.574 210.989C737.574 287.357 790.283 329.756 859.009 329.756C887.185 329.756 910.101 321.608 927.197 307.253C934.268 301.303 935.82 305.657 936.165 314.754C936.423 320.53 937.113 325.143 948.819 325.143L989.175 325.143C990.609 325.172 992.034 324.914 993.367 324.385C994.699 323.857 995.913 323.067 996.937 322.064C997.961 321.06 998.774 319.862 999.329 318.54C999.884 317.219 1000.17 315.799 1000.17 314.366L1000.17 11.7784C1000.17 10.3448 999.884 8.92548 999.329 7.60367C998.774 6.28183 997.961 5.08401 996.937 4.08035C995.913 3.07672 994.699 2.28741 993.367 1.75867C992.034 1.22989 990.609 0.97229 989.175 1.00098Z" fill="#67645E"></path>
        <path d="M1148.79 134.338C1175.31 134.338 1201.65 150.44 1202.9 175.574C1202.9 175.818 1202.86 176.06 1202.77 176.286C1202.67 176.513 1202.54 176.718 1202.36 176.891C1202.19 177.063 1201.99 177.2 1201.76 177.292C1201.53 177.384 1201.29 177.43 1201.05 177.427L1094.81 177.427C1094.57 177.433 1094.32 177.389 1094.1 177.298C1093.87 177.207 1093.66 177.07 1093.49 176.896C1093.32 176.723 1093.19 176.516 1093.1 176.288C1093.01 176.061 1092.97 175.818 1092.98 175.574C1094.31 150.957 1122.14 134.338 1148.79 134.338ZM1261.52 227.026C1264.11 227.076 1266.62 226.162 1268.57 224.461C1270.53 222.76 1271.77 220.393 1272.08 217.822C1272.47 213.726 1272.66 209.538 1272.66 205.255C1272.66 130.781 1224.54 80.8593 1148.68 80.9671C1075.84 81.0749 1023.22 135.2 1023.65 206.419C1024.16 280.613 1073.08 329.996 1148.85 329.996C1203.31 329.996 1241.88 304.13 1260.96 261.816C1261.32 260.909 1261.46 259.925 1261.35 258.952C1261.25 257.979 1260.9 257.048 1260.35 256.242C1259.79 255.436 1259.04 254.781 1258.17 254.335C1257.3 253.89 1256.33 253.668 1255.35 253.69L1200.53 253.69C1198.41 253.738 1196.31 254.216 1194.38 255.094C1192.45 255.972 1190.71 257.232 1189.28 258.799C1178.39 270.029 1166.58 276.56 1148.81 276.56C1117.88 276.56 1092.91 257.549 1092.91 226.983L1261.52 227.026Z" fill="#67645E"></path>
      </svg>

Instagram
<svg width="18" height="18" viewBox="0 0 18 18" fill="none" xmlns="http://www.w3.org/2000/svg">
  <path d="M9.06213 0.600098C6.78081 0.600098 6.49475 0.609767 5.5988 0.650647C4.70472 0.69146 4.09409 0.833438 3.55976 1.0411C3.00738 1.25577 2.53894 1.543 2.07195 2.00998C1.60497 2.47696 1.31775 2.9454 1.10308 3.49778C0.895416 4.03208 0.753438 4.64271 0.712625 5.53679C0.671746 6.43274 0.662109 6.7188 0.662109 9.00012C0.662109 11.2814 0.671746 11.5675 0.712625 12.4634C0.753438 13.3575 0.895416 13.9681 1.10308 14.5024C1.31775 15.0548 1.60497 15.5232 2.07195 15.9903C2.53894 16.4572 3.00738 16.7445 3.55976 16.9591C4.09409 17.1668 4.70472 17.3088 5.5988 17.3496C6.49475 17.3904 6.78081 17.4001 9.06213 17.4001C11.3434 17.4001 11.6295 17.3904 12.5254 17.3496C13.4195 17.3088 14.0301 17.1668 14.5644 16.9591C15.1168 16.7445 15.5853 16.4572 16.0523 15.9903C16.5192 15.5232 16.8065 15.0548 17.0211 14.5024C17.2288 13.9681 17.3708 13.3575 17.4116 12.4634C17.4524 11.5675 17.4621 11.2814 17.4621 9.00012C17.4621 6.7188 17.4524 6.43274 17.4116 5.53679C17.3708 4.64271 17.2288 4.03208 17.0211 3.49778C16.8065 2.9454 16.5192 2.47696 16.0523 2.00998C15.5853 1.543 15.1168 1.25577 14.5644 1.0411C14.0301 0.833438 13.4195 0.69146 12.5254 0.650647C11.6295 0.609767 11.3434 0.600098 9.06213 0.600098ZM9.06213 2.11364C11.305 2.11364 11.5707 2.12218 12.4564 2.16259C13.2754 2.19997 13.7202 2.33681 14.0162 2.45182C14.4083 2.6042 14.6881 2.78625 14.982 3.08018C15.276 3.37411 15.458 3.65396 15.6104 4.04602C15.7254 4.34201 15.8623 4.78679 15.8996 5.60578C15.94 6.49152 15.9486 6.75721 15.9486 9.00012C15.9486 11.243 15.94 11.5087 15.8996 12.3944C15.8623 13.2134 15.7254 13.6582 15.6104 13.9542C15.458 14.3463 15.276 14.6261 14.982 14.92C14.6881 15.214 14.4083 15.396 14.0162 15.5484C13.7202 15.6634 13.2754 15.8003 12.4564 15.8376C11.5708 15.878 11.3052 15.8866 9.06213 15.8866C6.81905 15.8866 6.55344 15.878 5.66779 15.8376C4.8488 15.8003 4.40402 15.6634 4.10803 15.5484C3.71594 15.396 3.43612 15.214 3.14216 14.92C2.84823 14.6261 2.66618 14.3463 2.51383 13.9542C2.39879 13.6582 2.26195 13.2134 2.22457 12.3944C2.18416 11.5087 2.17562 11.243 2.17562 9.00012C2.17562 6.75721 2.18416 6.49152 2.22457 5.60578C2.26195 4.78679 2.39879 4.34201 2.51383 4.04602C2.66618 3.65396 2.84823 3.37411 3.14216 3.08018C3.43612 2.78625 3.71594 2.6042 4.10803 2.45182C4.40402 2.33681 4.8488 2.19997 5.66779 2.16259C6.55353 2.12218 6.81922 2.11364 9.06213 2.11364Z" fill="#67645e"></path>
  <path d="M9.06353 11.8003C7.51711 11.8003 6.26351 10.5467 6.26351 9.00029C6.26351 7.45387 7.51711 6.20028 9.06353 6.20028C10.6099 6.20028 11.8635 7.45387 11.8635 9.00029C11.8635 10.5467 10.6099 11.8003 9.06353 11.8003ZM9.06353 4.68677C6.68121 4.68677 4.75 6.61798 4.75 9.00029C4.75 11.3826 6.68121 13.3138 9.06353 13.3138C11.4458 13.3138 13.377 11.3826 13.377 9.00029C13.377 6.61798 11.4458 4.68677 9.06353 4.68677Z" fill="#67645e"></path>
  <path d="M14.5521 4.51653C14.5521 5.07324 14.1008 5.52451 13.5441 5.52451C12.9874 5.52451 12.5361 5.07324 12.5361 4.51653C12.5361 3.95982 12.9874 3.50854 13.5441 3.50854C14.1008 3.50854 14.5521 3.95982 14.5521 4.51653Z" fill="#67645e"></path>
  </svg>

Youtube

<svg xmlns="http://www.w3.org/2000/svg" viewBox="0 0 20 20">
  <path d="M10 2.3C.172 2.3 0 3.174 0 10s.172 7.7 10 7.7 10-.874 10-7.7-.172-7.7-10-7.7zm3.205 8.034l-4.49 2.096c-.393.182-.715-.022-.715-.456V8.026c0-.433.322-.638.715-.456l4.49 2.096c.393.184.393.484 0 .668z"></path>
</svg>

Tiktok

<svg width="16" height="18" viewBox="0 0 16 18" fill="none" xmlns="http://www.w3.org/2000/svg">
    <path d="M8.58371 0.600098H11.386C11.4161 0.722499 11.4395 0.846454 11.4561 0.971407C11.5415 1.94597 11.9873 2.85364 12.7064 3.51699C13.4255 4.18034 14.3661 4.55167 15.3443 4.5584V7.1996C15.2133 7.24221 15.0757 7.26118 14.938 7.25564C14.2862 7.18365 13.6401 7.0666 13.0044 6.90535C12.4558 6.69422 11.9221 6.44611 11.4071 6.16273V6.51303C11.4071 7.91419 11.4071 9.3574 11.4071 10.7796C11.4141 11.3584 11.3766 11.9369 11.295 12.51C11.1721 13.4666 10.8062 14.3758 10.2323 15.1509C9.6583 15.926 8.89538 16.5411 8.01624 16.9377C7.49961 17.1277 6.9706 17.2822 6.43292 17.4001H5.45911C5.41831 17.3807 5.37616 17.3643 5.333 17.3511C4.346 17.2255 3.41886 16.8085 2.67008 16.1534C1.92131 15.4982 1.38492 14.6346 1.1295 13.673C1.01191 13.2545 0.922961 12.8285 0.863281 12.3979V11.5782C0.940345 11.1929 0.996392 10.8076 1.10849 10.4293C1.42423 9.41909 2.03426 8.52609 2.86048 7.86461C3.68671 7.20313 4.69154 6.80326 5.74635 6.71619C6.06161 6.66715 6.37687 6.65314 6.71315 6.62512C6.71315 7.53588 6.71315 8.37658 6.71315 9.22428C6.71315 9.42745 6.60807 9.45548 6.43993 9.50452C5.90278 9.62765 5.37581 9.79159 4.86361 9.99493C4.46913 10.1436 4.1302 10.4105 3.89318 10.7591C3.65617 11.1077 3.53265 11.521 3.53951 11.9425C3.5098 12.4205 3.62152 12.8967 3.86074 13.3116C4.09996 13.7265 4.45607 14.0617 4.88463 14.2755C5.27652 14.5178 5.73172 14.6379 6.19216 14.6204C6.65259 14.603 7.09738 14.4487 7.46978 14.1774C7.74862 13.9778 7.98248 13.7219 8.15625 13.4262C8.33002 13.1305 8.43985 12.8017 8.47863 12.461C8.56238 11.7637 8.5975 11.0614 8.58371 10.3592C8.58371 7.24864 8.58371 4.13571 8.58371 1.02045C8.60473 0.873326 8.59072 0.740214 8.58371 0.600098Z" fill="#67645e"></path>
    </svg>